<svg width="480" height="100" viewBox="0 0 480 100" fill="none" xmlns="http://www.w3.org/2000/svg">
<path fill-rule="evenodd" clip-rule="evenodd" d="M138.733 48.2768L138.733 50.7686L146.274 50.7686L146.274 48.2768L138.733 48.2768ZM136.733 52.7686L147.274 52.7686C147.827 52.7686 148.274 52.3208 148.274 51.7686L148.274 47.2768C148.274 46.7245 147.827 46.2768 147.274 46.2768L136.733 46.2768L136.733 52.7686Z" fill="#333333"/>
<path fill-rule="evenodd" clip-rule="evenodd" d="M204.366 50.7729L211.907 50.7729L211.907 48.2811L204.366 48.2811L204.366 50.7729ZM202.366 51.7729C202.366 52.3252 202.814 52.7729 203.366 52.7729L213.907 52.7729L213.907 46.2811L203.366 46.2811C202.814 46.2811 202.366 46.7289 202.366 47.2811L202.366 51.7729Z" fill="#333333"/>
<path fill-rule="evenodd" clip-rule="evenodd" d="M148.286 49.0045L148.286 50.0537L202.355 50.0537L202.355 49.0045L148.286 49.0045ZM146.286 52.0537L204.355 52.0537L204.355 47.0045L146.286 47.0045L146.286 52.0537Z" fill="#333333"/>
<path fill-rule="evenodd" clip-rule="evenodd" d="M124.843 52.9365L136.712 52.9365L136.712 46.1169L124.843 46.1169L124.843 52.9365ZM122.843 53.9365C122.843 54.4888 123.29 54.9365 123.843 54.9365L137.712 54.9365C138.264 54.9365 138.712 54.4888 138.712 53.9365L138.712 45.1169C138.712 44.5646 138.264 44.1169 137.712 44.1169L123.843 44.1169C123.29 44.1169 122.843 44.5646 122.843 45.1169L122.843 53.9365Z" fill="#333333"/>
<path fill-rule="evenodd" clip-rule="evenodd" d="M225.775 44.0004L213.907 44.0004L213.907 55.0537L225.775 55.0537L225.775 44.0004ZM227.775 43.0004C227.775 42.4481 227.328 42.0004 226.775 42.0004L212.907 42.0004C212.354 42.0004 211.907 42.4481 211.907 43.0004L211.907 56.0537C211.907 56.606 212.354 57.0537 212.907 57.0537L226.775 57.0537C227.328 57.0537 227.775 56.606 227.775 56.0537L227.775 43.0004Z" fill="#333333"/>
<path fill-rule="evenodd" clip-rule="evenodd" d="M120 51.1167L123 51.1167L123 48.1167L120 48.1167L120 51.1167ZM118 52.1167C118 52.669 118.448 53.1167 119 53.1167L125 53.1167L125 46.1167L119 46.1167C118.448 46.1167 118 46.5644 118 47.1167L118 52.1167Z" fill="#333333"/>
<path fill-rule="evenodd" clip-rule="evenodd" d="M235 46.1172L228 46.1172L228 53.1172L235 53.1172L235 46.1172ZM237 45.1172C237 44.5649 236.552 44.1172 236 44.1172L226 44.1172L226 55.1172L236 55.1172C236.552 55.1172 237 54.6695 237 54.1172L237 45.1172Z" fill="#333333"/>
<path d="M232.304 47.1172L232.304 48.7246L230.696 48.7246L230.696 47.1172L232.304 47.1172Z" fill="#333333"/>
<path d="M232.304 50.5142L232.304 52.1216L230.696 52.1216L230.696 50.5142L232.304 50.5142Z" fill="#333333"/>
<path fill-rule="evenodd" clip-rule="evenodd" d="M33.9999 78.5872C31.7908 78.5872 29.9999 76.7963 29.9999 74.5872L29.9999 25.4128C29.9999 23.2037 31.7908 21.4128 33.9999 21.4128L102 21.4128C104.209 21.4128 106 23.2037 106 25.4128L106 74.5872C106 76.7963 104.209 78.5872 102 78.5872L33.9999 78.5872ZM33.9999 25.4128L33.9999 74.5872L102 74.5872L102 25.4128L33.9999 25.4128Z" fill="#333333"/>
<path fill-rule="evenodd" clip-rule="evenodd" d="M60.7156 32.0091L32.3303 32.0091L32.3303 30.0091L60.7156 30.0091C62.3725 30.0091 63.7156 31.3523 63.7156 33.0091L63.7156 67.321C63.7156 68.9779 62.3725 70.321 60.7156 70.321L32.3303 70.321L32.3303 68.321L60.7156 68.321C61.2679 68.321 61.7156 67.8733 61.7156 67.321L61.7156 33.0091C61.7156 32.4568 61.2679 32.0091 60.7156 32.0091Z" fill="#333333"/>
<path fill-rule="evenodd" clip-rule="evenodd" d="M54.1376 62.1262C54.1376 62.6785 54.5853 63.1262 55.1376 63.1262L62.3853 63.1262L62.3853 65.1262L55.1376 65.1262C53.4808 65.1262 52.1376 63.7831 52.1376 62.1262L52.1376 50.7684C52.1376 49.1116 53.4808 47.7684 55.1376 47.7684L62.3853 47.7684L62.3853 49.7684L55.1376 49.7684C54.5853 49.7684 54.1376 50.2161 54.1376 50.7684L54.1376 62.1262Z" fill="#333333"/>
<path d="M88.1845 54.6924C87.7426 54.6924 87.3845 54.3342 87.3845 53.8924L87.3845 53.4924C87.3845 53.0506 87.7426 52.6924 88.1845 52.6924L88.5845 52.6924C89.0263 52.6924 89.3845 53.0506 89.3845 53.4924L89.3845 53.8924C89.3845 54.3342 89.0263 54.6924 88.5845 54.6924L88.1845 54.6924Z" fill="#333333"/>
<path d="M88.1846 51C87.7428 51 87.3846 50.6418 87.3846 50.2L87.3846 49.8C87.3846 49.3582 87.7428 49 88.1846 49L88.5846 49C89.0264 49 89.3846 49.3582 89.3846 49.8L89.3846 50.2C89.3846 50.6418 89.0264 51 88.5846 51L88.1846 51Z" fill="#333333"/>
<path d="M88.1846 47.3077C87.7428 47.3077 87.3846 46.9495 87.3846 46.5077L87.3846 46.1077C87.3846 45.6659 87.7428 45.3077 88.1846 45.3077L88.5846 45.3077C89.0264 45.3077 89.3846 45.6659 89.3846 46.1077L89.3846 46.5077C89.3846 46.9495 89.0264 47.3077 88.5846 47.3077L88.1846 47.3077Z" fill="#333333"/>
<path fill-rule="evenodd" clip-rule="evenodd" d="M326.489 24.9678V66.9678H390.489V24.9678H326.489ZM324.489 20.9678C323.384 20.9678 322.489 21.8632 322.489 22.9678V70.9678H394.489V22.9678C394.489 21.8632 393.593 20.9678 392.489 20.9678H324.489Z" fill="#333333"/>
<path fill-rule="evenodd" clip-rule="evenodd" d="M398.489 77.9678H318.489V73.9678H398.489V77.9678Z" fill="#333333"/>
<g clip-path="url(#clip0_1521_1738)">
<path d="M451.259 37.4698C451.4 37.3292 451.59 37.2502 451.789 37.2502C451.988 37.2502 452.179 37.3292 452.319 37.4698L454.441 39.5908C454.511 39.6604 454.566 39.7431 454.604 39.8342C454.642 39.9252 454.661 40.0228 454.661 40.1214C454.661 40.22 454.642 40.3176 454.604 40.4086C454.566 40.4997 454.511 40.5824 454.441 40.652L435.879 59.213L433.758 61.3348C433.511 61.5815 433.2 61.724 432.879 61.7623L432.759 61.7728H432.637C432.26 61.7582 431.903 61.6017 431.637 61.3348L429.516 59.213L419.97 49.667C419.829 49.5264 419.75 49.3356 419.75 49.1368C419.75 48.9379 419.829 48.7472 419.97 48.6065L422.091 46.4855C422.16 46.4158 422.243 46.3605 422.334 46.3227C422.425 46.285 422.523 46.2656 422.621 46.2656C422.72 46.2656 422.818 46.285 422.909 46.3227C423 46.3605 423.082 46.4158 423.152 46.4855L432.697 56.03L451.259 37.4698Z" fill="#00D998"/>
</g>
<path fill-rule="evenodd" clip-rule="evenodd" d="M302.627 37.6338L302.627 30.0928L300.135 30.0928L300.135 37.6338L302.627 37.6338ZM303.627 39.6338C304.179 39.6338 304.627 39.1861 304.627 38.6338L304.627 28.0928L298.135 28.0928L298.135 38.6338C298.135 39.1861 298.583 39.6338 299.135 39.6338L303.627 39.6338Z" fill="#333333"/>
<path fill-rule="evenodd" clip-rule="evenodd" d="M297.975 16.2246L297.975 28.0935L304.795 28.0935L304.795 16.2246L297.975 16.2246ZM296.975 14.2246C296.423 14.2246 295.975 14.6723 295.975 15.2246L295.975 29.0935C295.975 29.6457 296.423 30.0935 296.975 30.0935L305.795 30.0935C306.347 30.0935 306.795 29.6457 306.795 29.0935L306.795 15.2246C306.795 14.6723 306.347 14.2246 305.795 14.2246L296.975 14.2246Z" fill="#333333"/>
<path fill-rule="evenodd" clip-rule="evenodd" d="M299.975 11L299.975 14L302.975 14L302.975 11L299.975 11ZM298.975 9C298.423 9 297.975 9.44772 297.975 10L297.975 16L304.975 16L304.975 10C304.975 9.44771 304.528 9 303.975 9L298.975 9Z" fill="#333333"/>
<path fill-rule="evenodd" clip-rule="evenodd" d="M263.246 82.541L263.246 75L260.754 75L260.754 82.541L263.246 82.541ZM264.246 84.541C264.798 84.541 265.246 84.0933 265.246 83.541L265.246 73L258.754 73L258.754 83.541C258.754 84.0933 259.202 84.541 259.754 84.541L264.246 84.541Z" fill="#333333"/>
<path fill-rule="evenodd" clip-rule="evenodd" d="M253 9V71H271V9H253ZM251 5C249.895 5 249 5.89543 249 7V73C249 74.1046 249.895 75 251 75H273C274.105 75 275 74.1046 275 73V7C275 5.89543 274.105 5 273 5H251Z" fill="#333333"/>
<path fill-rule="evenodd" clip-rule="evenodd" d="M259.477 82.5486H264.527V84.5486C264.527 85.9693 264.818 86.9245 265.273 87.6499C265.738 88.3901 266.482 89.0631 267.672 89.7361C270.025 91.0663 273.565 91.8252 277.769 91.8252L278.33 91.8253C283.705 91.826 287.369 91.8165 290.18 91.2241C292.855 90.6603 294.589 89.6006 296.1 87.3656C297.776 84.8895 298.512 82.2513 298.796 77.9102C298.993 74.8871 298.964 71.1899 298.923 66.2715L298.923 66.2682C298.905 63.9955 298.884 61.475 298.884 58.6689V37.6377H303.884V58.6689C303.884 61.4241 303.904 63.9132 303.923 66.1812L303.924 66.2553C303.963 71.1118 303.995 75.0116 303.785 78.2357C303.47 83.0581 302.601 86.6799 300.242 90.1672C297.921 93.598 295.003 95.3175 291.211 96.1167C287.838 96.8275 283.656 96.8265 278.62 96.8253L277.769 96.8252C273.092 96.8252 268.593 96.0006 265.212 94.0886C261.652 92.0759 259.478 88.7441 259.478 84.5487L259.477 82.5486ZM300.884 39.6377V58.6689C300.884 61.4469 300.904 63.9447 300.923 66.2058C300.923 66.2221 300.923 66.2383 300.923 66.2545C300.963 71.1455 300.994 74.9275 300.791 78.0404C300.496 82.5741 299.706 85.6057 297.757 88.4863C295.922 91.1994 293.715 92.5232 290.592 93.1811C287.546 93.8231 283.661 93.826 278.415 93.8253C278.386 93.8253 278.358 93.8253 278.33 93.8253L277.769 93.8252C273.376 93.8252 269.452 93.0401 266.688 91.4771C263.947 89.9274 262.527 87.9665 262.527 84.5486H261.478C261.478 85.2457 261.55 85.9132 261.69 86.5486C262.237 89.0182 263.815 91.0015 266.196 92.3476C269.166 94.0269 273.281 94.8252 277.769 94.8252L278.415 94.8253C283.624 94.8264 287.631 94.8272 290.799 94.1596C294.144 93.4546 296.588 91.9989 298.585 89.0466C300.671 85.9638 301.487 82.7354 301.789 78.1055C301.994 74.9654 301.964 71.1415 301.923 66.2469C301.923 66.2305 301.923 66.214 301.923 66.1976C301.904 63.9302 301.884 61.4334 301.884 58.6689V39.6377H300.884Z" fill="#333333"/>
<defs>
<clipPath id="clip0_1521_1738">
<rect width="48" height="48" fill="white" transform="translate(413 26)"/>
</clipPath>
</defs>
</svg>
