<svg width="480" height="100" viewBox="0 0 480 100" fill="none" xmlns="http://www.w3.org/2000/svg">
<path fill-rule="evenodd" clip-rule="evenodd" d="M179.115 48.7504L179.115 51.2422L186.656 51.2422L186.656 48.7504L179.115 48.7504ZM177.115 53.2422L187.656 53.2422C188.209 53.2422 188.656 52.7945 188.656 52.2422L188.656 47.7504C188.656 47.1981 188.209 46.7504 187.656 46.7504L177.115 46.7504L177.115 53.2422Z" fill="#333333"/>
<path fill-rule="evenodd" clip-rule="evenodd" d="M244.748 51.2422L252.289 51.2422L252.289 48.7504L244.748 48.7504L244.748 51.2422ZM242.748 52.2422C242.748 52.7945 243.196 53.2422 243.748 53.2422L254.289 53.2422L254.289 46.7504L243.748 46.7504C243.196 46.7504 242.748 47.1981 242.748 47.7504L242.748 52.2422Z" fill="#333333"/>
<path fill-rule="evenodd" clip-rule="evenodd" d="M188.668 49.4782L188.668 50.5273L242.737 50.5273L242.737 49.4782L188.668 49.4782ZM186.668 52.5273L244.737 52.5273L244.737 47.4782L186.668 47.4782L186.668 52.5273Z" fill="#333333"/>
<path fill-rule="evenodd" clip-rule="evenodd" d="M165.225 53.4102L177.093 53.4102L177.093 46.5905L165.225 46.5905L165.225 53.4102ZM163.225 54.4102C163.225 54.9624 163.672 55.4102 164.225 55.4102L178.093 55.4102C178.646 55.4102 179.093 54.9624 179.093 54.4102L179.093 45.5905C179.093 45.0382 178.646 44.5905 178.093 44.5905L164.225 44.5905C163.672 44.5905 163.225 45.0382 163.225 45.5905L163.225 54.4102Z" fill="#333333"/>
<path fill-rule="evenodd" clip-rule="evenodd" d="M266.157 46.5903L254.288 46.5903L254.288 53.41L266.157 53.41L266.157 46.5903ZM268.157 45.5903C268.157 45.038 267.71 44.5903 267.157 44.5903L253.288 44.5903C252.736 44.5903 252.288 45.038 252.288 45.5903L252.288 54.41C252.288 54.9623 252.736 55.41 253.288 55.41L267.157 55.41C267.71 55.41 268.157 54.9623 268.157 54.41L268.157 45.5903Z" fill="#333333"/>
<path fill-rule="evenodd" clip-rule="evenodd" d="M160 52L163 52L163 48L160 48L160 52ZM158 53C158 53.5523 158.448 54 159 54L165 54L165 46L159 46C158.448 46 158 46.4477 158 47L158 53Z" fill="#333333"/>
<path fill-rule="evenodd" clip-rule="evenodd" d="M271 48L268 48L268 52L271 52L271 48ZM273 47C273 46.4477 272.552 46 272 46L266 46L266 54L272 54C272.552 54 273 53.5523 273 53L273 47Z" fill="#333333"/>
<path fill-rule="evenodd" clip-rule="evenodd" d="M73.9999 78.5872C71.7908 78.5872 69.9999 76.7963 69.9999 74.5872L69.9999 25.4128C69.9999 23.2037 71.7908 21.4128 73.9999 21.4128L142 21.4128C144.209 21.4128 146 23.2037 146 25.4128L146 74.5872C146 76.7963 144.209 78.5872 142 78.5872L73.9999 78.5872ZM73.9999 25.4128L73.9999 74.5872L142 74.5872L142 25.4128L73.9999 25.4128Z" fill="#333333"/>
<path fill-rule="evenodd" clip-rule="evenodd" d="M100.716 32.0091L72.3303 32.0091L72.3303 30.0091L100.716 30.0091C102.372 30.0091 103.716 31.3523 103.716 33.0091L103.716 67.321C103.716 68.9779 102.372 70.321 100.716 70.321L72.3303 70.321L72.3303 68.321L100.716 68.321C101.268 68.321 101.716 67.8733 101.716 67.321L101.716 33.0091C101.716 32.4568 101.268 32.0091 100.716 32.0091Z" fill="#333333"/>
<path fill-rule="evenodd" clip-rule="evenodd" d="M94.1376 62.1262C94.1376 62.6785 94.5853 63.1262 95.1376 63.1262L102.385 63.1262L102.385 65.1262L95.1376 65.1262C93.4808 65.1262 92.1376 63.7831 92.1376 62.1262L92.1376 50.7684C92.1376 49.1116 93.4808 47.7684 95.1376 47.7684L102.385 47.7684L102.385 49.7684L95.1376 49.7684C94.5853 49.7684 94.1376 50.2161 94.1376 50.7684L94.1376 62.1262Z" fill="#333333"/>
<path d="M128.184 54.6924C127.743 54.6924 127.384 54.3342 127.384 53.8924L127.384 53.4924C127.384 53.0506 127.743 52.6924 128.184 52.6924L128.584 52.6924C129.026 52.6924 129.384 53.0506 129.384 53.4924L129.384 53.8924C129.384 54.3342 129.026 54.6924 128.584 54.6924L128.184 54.6924Z" fill="#333333"/>
<path d="M128.185 51C127.743 51 127.385 50.6418 127.385 50.2L127.385 49.8C127.385 49.3582 127.743 49 128.185 49L128.585 49C129.026 49 129.385 49.3582 129.385 49.8L129.385 50.2C129.385 50.6418 129.026 51 128.585 51L128.185 51Z" fill="#333333"/>
<path d="M128.185 47.3077C127.743 47.3077 127.385 46.9496 127.385 46.5077L127.385 46.1077C127.385 45.6659 127.743 45.3077 128.185 45.3077L128.585 45.3077C129.026 45.3077 129.385 45.6659 129.385 46.1077L129.385 46.5077C129.385 46.9496 129.026 47.3077 128.585 47.3077L128.185 47.3077Z" fill="#333333"/>
<path fill-rule="evenodd" clip-rule="evenodd" d="M289 26V68H353V26H289ZM287 22C285.895 22 285 22.8954 285 24V72H357V24C357 22.8954 356.105 22 355 22H287Z" fill="#333333"/>
<path fill-rule="evenodd" clip-rule="evenodd" d="M361 79H281V75H361V79Z" fill="#333333"/>
<g clip-path="url(#clip0_1521_1736)">
<path d="M413.319 37.8028C413.46 37.9434 413.539 38.1341 413.539 38.333C413.539 38.5319 413.46 38.7226 413.319 38.8633L402.182 50L413.319 61.1375C413.459 61.2781 413.538 61.4687 413.538 61.6674C413.538 61.8661 413.459 62.0567 413.319 62.1973L411.197 64.319C411.057 64.4596 410.866 64.5386 410.667 64.5386C410.468 64.5386 410.277 64.4596 410.137 64.319L399 53.1815L387.863 64.319C387.722 64.4594 387.531 64.5382 387.333 64.5382C387.134 64.5382 386.943 64.4594 386.803 64.319L384.681 62.1973C384.54 62.0566 384.461 61.8659 384.461 61.667C384.461 61.4681 384.54 61.2774 384.681 61.1368L395.819 50L384.681 38.8625C384.541 38.7219 384.462 38.5313 384.462 38.3326C384.462 38.134 384.541 37.9434 384.681 37.8028L386.803 35.681C386.943 35.5404 387.134 35.4614 387.333 35.4614C387.532 35.4614 387.723 35.5404 387.863 35.681L399 46.8185L410.138 35.681C410.278 35.5406 410.469 35.4618 410.667 35.4618C410.866 35.4618 411.057 35.5406 411.197 35.681L413.319 37.8028Z" fill="#FF3A52"/>
</g>
<defs>
<clipPath id="clip0_1521_1736">
<rect width="48" height="48" fill="white" transform="translate(375 26)"/>
</clipPath>
</defs>
</svg>
