<svg width="480" height="100" viewBox="0 0 480 100" fill="none" xmlns="http://www.w3.org/2000/svg">
<path fill-rule="evenodd" clip-rule="evenodd" d="M175.733 48.2768L175.733 50.7686L183.274 50.7686L183.274 48.2768L175.733 48.2768ZM173.733 52.7686L184.274 52.7686C184.827 52.7686 185.274 52.3208 185.274 51.7686L185.274 47.2768C185.274 46.7245 184.827 46.2768 184.274 46.2768L173.733 46.2768L173.733 52.7686Z" fill="#333333"/>
<path fill-rule="evenodd" clip-rule="evenodd" d="M241.366 50.7729L248.907 50.7729L248.907 48.2811L241.366 48.2811L241.366 50.7729ZM239.366 51.7729C239.366 52.3252 239.814 52.7729 240.366 52.7729L250.907 52.7729L250.907 46.2811L240.366 46.2811C239.814 46.2811 239.366 46.7289 239.366 47.2811L239.366 51.7729Z" fill="#333333"/>
<path fill-rule="evenodd" clip-rule="evenodd" d="M185.286 49.0045L185.286 50.0537L239.355 50.0537L239.355 49.0045L185.286 49.0045ZM183.286 52.0537L241.355 52.0537L241.355 47.0045L183.286 47.0045L183.286 52.0537Z" fill="#333333"/>
<path fill-rule="evenodd" clip-rule="evenodd" d="M161.843 52.9365L173.712 52.9365L173.712 46.1169L161.843 46.1169L161.843 52.9365ZM159.843 53.9365C159.843 54.4888 160.29 54.9365 160.843 54.9365L174.712 54.9365C175.264 54.9365 175.712 54.4888 175.712 53.9365L175.712 45.1169C175.712 44.5646 175.264 44.1169 174.712 44.1169L160.843 44.1169C160.29 44.1169 159.843 44.5646 159.843 45.1169L159.843 53.9365Z" fill="#333333"/>
<path fill-rule="evenodd" clip-rule="evenodd" d="M262.775 44.0004L250.907 44.0004L250.907 55.0537L262.775 55.0537L262.775 44.0004ZM264.775 43.0004C264.775 42.4481 264.328 42.0004 263.775 42.0004L249.907 42.0004C249.354 42.0004 248.907 42.4481 248.907 43.0004L248.907 56.0537C248.907 56.606 249.354 57.0537 249.907 57.0537L263.775 57.0537C264.328 57.0537 264.775 56.606 264.775 56.0537L264.775 43.0004Z" fill="#333333"/>
<path fill-rule="evenodd" clip-rule="evenodd" d="M157 51.1167L160 51.1167L160 48.1167L157 48.1167L157 51.1167ZM155 52.1167C155 52.669 155.448 53.1167 156 53.1167L162 53.1167L162 46.1167L156 46.1167C155.448 46.1167 155 46.5644 155 47.1167L155 52.1167Z" fill="#333333"/>
<path fill-rule="evenodd" clip-rule="evenodd" d="M272 46.1172L265 46.1172L265 53.1172L272 53.1172L272 46.1172ZM274 45.1172C274 44.5649 273.552 44.1172 273 44.1172L263 44.1172L263 55.1172L273 55.1172C273.552 55.1172 274 54.6695 274 54.1172L274 45.1172Z" fill="#333333"/>
<path d="M269.304 47.1172L269.304 48.7246L267.696 48.7246L267.696 47.1172L269.304 47.1172Z" fill="#333333"/>
<path d="M269.304 50.5142L269.304 52.1216L267.696 52.1216L267.696 50.5142L269.304 50.5142Z" fill="#333333"/>
<path fill-rule="evenodd" clip-rule="evenodd" d="M70.9999 78.5872C68.7908 78.5872 66.9999 76.7963 66.9999 74.5872L66.9999 25.4128C66.9999 23.2037 68.7908 21.4128 70.9999 21.4128L139 21.4128C141.209 21.4128 143 23.2037 143 25.4128L143 74.5872C143 76.7963 141.209 78.5872 139 78.5872L70.9999 78.5872ZM70.9999 25.4128L70.9999 74.5872L139 74.5872L139 25.4128L70.9999 25.4128Z" fill="#333333"/>
<path fill-rule="evenodd" clip-rule="evenodd" d="M97.7156 32.0091L69.3303 32.0091L69.3303 30.0091L97.7156 30.0091C99.3725 30.0091 100.716 31.3523 100.716 33.0091L100.716 67.321C100.716 68.9779 99.3725 70.321 97.7156 70.321L69.3303 70.321L69.3303 68.321L97.7156 68.321C98.2679 68.321 98.7156 67.8733 98.7156 67.321L98.7156 33.0091C98.7156 32.4568 98.2679 32.0091 97.7156 32.0091Z" fill="#333333"/>
<path fill-rule="evenodd" clip-rule="evenodd" d="M91.1376 62.1262C91.1376 62.6785 91.5853 63.1262 92.1376 63.1262L99.3853 63.1262L99.3853 65.1262L92.1376 65.1262C90.4808 65.1262 89.1376 63.7831 89.1376 62.1262L89.1376 50.7684C89.1376 49.1116 90.4808 47.7684 92.1376 47.7684L99.3853 47.7684L99.3853 49.7684L92.1376 49.7684C91.5853 49.7684 91.1376 50.2161 91.1376 50.7684L91.1376 62.1262Z" fill="#333333"/>
<path d="M125.184 54.6924C124.743 54.6924 124.384 54.3342 124.384 53.8924L124.384 53.4924C124.384 53.0506 124.743 52.6924 125.184 52.6924L125.584 52.6924C126.026 52.6924 126.384 53.0506 126.384 53.4924L126.384 53.8924C126.384 54.3342 126.026 54.6924 125.584 54.6924L125.184 54.6924Z" fill="#333333"/>
<path d="M125.185 51C124.743 51 124.385 50.6418 124.385 50.2L124.385 49.8C124.385 49.3582 124.743 49 125.185 49L125.585 49C126.026 49 126.385 49.3582 126.385 49.8L126.385 50.2C126.385 50.6418 126.026 51 125.585 51L125.185 51Z" fill="#333333"/>
<path d="M125.185 47.3077C124.743 47.3077 124.385 46.9496 124.385 46.5077L124.385 46.1077C124.385 45.6659 124.743 45.3077 125.185 45.3077L125.585 45.3077C126.026 45.3077 126.385 45.6659 126.385 46.1077L126.385 46.5077C126.385 46.9496 126.026 47.3077 125.585 47.3077L125.185 47.3077Z" fill="#333333"/>
<path fill-rule="evenodd" clip-rule="evenodd" d="M290 25V67H354V25H290ZM288 21C286.895 21 286 21.8954 286 23V71H358V23C358 21.8954 357.105 21 356 21H288Z" fill="#333333"/>
<path fill-rule="evenodd" clip-rule="evenodd" d="M362 78H282V74H362V78Z" fill="#333333"/>
<g clip-path="url(#clip0_1521_1737)">
<path d="M414.259 37.4697C414.4 37.3291 414.59 37.2501 414.789 37.2501C414.988 37.2501 415.179 37.3291 415.32 37.4697L417.441 39.5907C417.511 39.6604 417.566 39.7431 417.604 39.8341C417.642 39.9252 417.661 40.0228 417.661 40.1213C417.661 40.2199 417.642 40.3175 417.604 40.4085C417.566 40.4996 417.511 40.5823 417.441 40.652L398.88 59.213L396.759 61.3347C396.511 61.5815 396.201 61.724 395.879 61.7622L395.759 61.7727H395.637C395.26 61.7581 394.903 61.6017 394.637 61.3347L392.516 59.213L382.97 49.667C382.829 49.5263 382.75 49.3356 382.75 49.1367C382.75 48.9378 382.829 48.7471 382.97 48.6065L385.091 46.4855C385.16 46.4157 385.243 46.3604 385.334 46.3227C385.425 46.2849 385.523 46.2655 385.621 46.2655C385.72 46.2655 385.818 46.2849 385.909 46.3227C386 46.3604 386.082 46.4157 386.152 46.4855L395.697 56.03L414.259 37.4697Z" fill="#00D998"/>
</g>
<defs>
<clipPath id="clip0_1521_1737">
<rect width="48" height="48" fill="white" transform="translate(376 26)"/>
</clipPath>
</defs>
</svg>
